<svg id="SvgjsSvg1006" width="1146.4000091552734" height="736.7410969482422" xmlns="http://www.w3.org/2000/svg" version="1.1" xmlns:xlink="http://www.w3.org/1999/xlink" xmlns:svgjs="http://svgjs.com/svgjs"><defs id="SvgjsDefs1007"><pattern patternUnits="userSpaceOnUse" id="pattern_mark_0" width="300" height="300"><text x="150" y="100" fill="rgba(229,229,229,0.8)" font-size="18" transform="rotate(-45, 150, 150)" style="dominant-baseline: middle; text-anchor: middle;"></text></pattern><pattern patternUnits="userSpaceOnUse" id="pattern_mark_1" width="300" height="300"><text x="150" y="200" fill="rgba(229,229,229,0.8)" font-size="18" transform="rotate(-45, 150, 150)" style="dominant-baseline: middle; text-anchor: middle;"></text></pattern><marker id="SvgjsMarker1045" markerWidth="13" markerHeight="9" refX="9.5" refY="4.5" viewBox="0 0 13 9" orient="auto" markerUnits="userSpaceOnUse" stroke-dasharray="0,0"><path id="SvgjsPath1046" d="M0,0 L13,4.5 L0,9 L0,0" fill="#323232" stroke="#323232" stroke-width="1"></path></marker><marker id="SvgjsMarker1063" markerWidth="13" markerHeight="9" refX="9.5" refY="4.5" viewBox="0 0 13 9" orient="auto" markerUnits="userSpaceOnUse" stroke-dasharray="0,0"><path id="SvgjsPath1064" d="M0,0 L13,4.5 L0,9 L0,0" fill="#323232" stroke="#323232" stroke-width="1"></path></marker><marker id="SvgjsMarker1083" markerWidth="13" markerHeight="9" refX="9.5" refY="4.5" viewBox="0 0 13 9" orient="auto" markerUnits="userSpaceOnUse" stroke-dasharray="0,0"><path id="SvgjsPath1084" d="M0,0 L13,4.5 L0,9 L0,0" fill="#323232" stroke="#323232" stroke-width="1"></path></marker><marker id="SvgjsMarker1128" markerWidth="13" markerHeight="9" refX="9.5" refY="4.5" viewBox="0 0 13 9" orient="auto" markerUnits="userSpaceOnUse" stroke-dasharray="0,0"><path id="SvgjsPath1129" d="M0,0 L13,4.5 L0,9 L0,0" fill="#323232" stroke="#323232" stroke-width="1"></path></marker><marker id="SvgjsMarker1154" markerWidth="13" markerHeight="9" refX="9.5" refY="4.5" viewBox="0 0 13 9" orient="auto" markerUnits="userSpaceOnUse" stroke-dasharray="0,0"><path id="SvgjsPath1155" d="M0,0 L13,4.5 L0,9 L0,0" fill="#323232" stroke="#323232" stroke-width="1"></path></marker><marker id="SvgjsMarker1182" markerWidth="13" markerHeight="9" refX="9.5" refY="4.5" viewBox="0 0 13 9" orient="auto" markerUnits="userSpaceOnUse" stroke-dasharray="0,0"><path id="SvgjsPath1183" d="M0,0 L13,4.5 L0,9 L0,0" fill="#323232" stroke="#323232" stroke-width="1"></path></marker><marker id="SvgjsMarker1188" markerWidth="13" markerHeight="9" refX="9.5" refY="4.5" viewBox="0 0 13 9" orient="auto" markerUnits="userSpaceOnUse" stroke-dasharray="0,0"><path id="SvgjsPath1189" d="M0,0 L13,4.5 L0,9 L0,0" fill="#323232" stroke="#323232" stroke-width="1"></path></marker></defs><rect id="svgbackgroundid" width="1146.4000091552734" height="736.7410969482422" fill="transparent"></rect><rect id="SvgjsRect1009" width="1146.4000091552734" height="736.7410969482422" fill="url(#pattern_mark_0)"></rect><rect id="SvgjsRect1010" width="1146.4000091552734" height="736.7410969482422" fill="url(#pattern_mark_1)"></rect><g id="SvgjsG1011" transform="translate(25,47.741096948242216)"><path id="SvgjsPath1012" d="M 0 4Q 0 0 4 0L 192 0Q 196 0 196 4L 196 76Q 196 80 192 80L 4 80Q 0 80 0 76Z" stroke="rgba(33,41,48,1)" stroke-width="1.5" fill-opacity="1" fill="#ffffff"></path><path id="SvgjsPath1013" d="M 0 30L 196 30" stroke="rgba(33,41,48,1)" stroke-width="1.5" fill="none"></path><path id="SvgjsPath1014" d="M 0 0L 196 0L 196 80L 0 80Z" stroke="none" fill="none"></path><g id="SvgjsG1015"><text id="SvgjsText1016" font-family="&quot;Microsoft YaHei&quot;, 微软雅黑, Arial" text-anchor="middle" font-size="13px" width="176px" fill="#323232" font-weight="700" align="middle" lineHeight="125%" anchor="middle" family="&quot;Microsoft YaHei&quot;, 微软雅黑, Arial" size="13px" weight="700" font-style="" opacity="1" y="4.375" transform="rotate(0)"><tspan id="SvgjsTspan1017" dy="16.25" x="98"><tspan id="SvgjsTspan1018" style="">HttpSecurityConfiguration</tspan></tspan></text></g><g id="SvgjsG1019"><text id="SvgjsText1020" font-family="&quot;Microsoft YaHei&quot;, 微软雅黑, Arial" text-anchor="start" font-size="13px" width="176px" fill="#323232" font-weight="400" align="middle" lineHeight="125%" anchor="start" family="&quot;Microsoft YaHei&quot;, 微软雅黑, Arial" size="13px" weight="400" font-style="" opacity="1" y="35.875" transform="rotate(0)"><tspan id="SvgjsTspan1021" dy="16.25" x="10"><tspan id="SvgjsTspan1022" style="">@Bean</tspan></tspan><tspan id="SvgjsTspan1023" dy="16.25" x="10"><tspan id="SvgjsTspan1024" style="">HttpSecurity httpSecurity()</tspan></tspan></text></g></g><g id="SvgjsG1025" transform="translate(27.63332176208496,424.7410969482422)"><path id="SvgjsPath1026" d="M 0 4Q 0 0 4 0L 186.73335647583008 0Q 190.73335647583008 0 190.73335647583008 4L 190.73335647583008 105Q 190.73335647583008 109 186.73335647583008 109L 4 109Q 0 109 0 105Z" stroke="rgba(33,41,48,1)" stroke-width="1.5" fill-opacity="1" fill="#ffffff"></path><path id="SvgjsPath1027" d="M 0 79L 190.73335647583008 79" stroke="rgba(33,41,48,1)" stroke-width="1.5" fill="none"></path><path id="SvgjsPath1028" d="M 0 0L 190.73335647583008 0L 190.73335647583008 109L 0 109Z" stroke="none" fill="none"></path><g id="SvgjsG1029"><text id="SvgjsText1030" font-family="&quot;Microsoft YaHei&quot;, 微软雅黑, Arial" text-anchor="middle" font-size="13px" width="171px" fill="#323232" font-weight="700" align="middle" lineHeight="125%" anchor="middle" family="&quot;Microsoft YaHei&quot;, 微软雅黑, Arial" size="13px" weight="700" font-style="" opacity="1" y="4.375" transform="rotate(0)"><tspan id="SvgjsTspan1031" dy="16.25" x="95.5"><tspan id="SvgjsTspan1032" style="">AuthorizeHttp</tspan></tspan><tspan id="SvgjsTspan1033" dy="16.25" x="95.5"><tspan id="SvgjsTspan1034" style="">RequestsConfigurer</tspan></tspan><tspan id="SvgjsTspan1035" dy="16.25" x="95.5"><tspan id="SvgjsTspan1036" style="">$AuthorizationManager</tspan></tspan><tspan id="SvgjsTspan1037" dy="16.25" x="95.5"><tspan id="SvgjsTspan1038" style="">RequestMatcherRegistry</tspan></tspan></text></g><g id="SvgjsG1039"><text id="SvgjsText1040" font-family="&quot;Microsoft YaHei&quot;, 微软雅黑, Arial" text-anchor="start" font-size="13px" width="171px" fill="#323232" font-weight="400" align="middle" lineHeight="125%" anchor="start" family="&quot;Microsoft YaHei&quot;, 微软雅黑, Arial" size="13px" weight="400" font-style="" opacity="1" y="83.375" transform="rotate(0)"><tspan id="SvgjsTspan1041" dy="16.25" x="10"><tspan id="SvgjsTspan1042" style="">managerBuilder</tspan></tspan></text></g></g><g id="SvgjsG1043"><path id="SvgjsPath1044" d="M221.75 105.04110000000003L245.60000458359718 105.04110000000003L245.60000458359718 105.02055000000001L267.7500091671944 105.02055000000001" stroke="#323232" stroke-width="1.5" fill="none" marker-end="url(#SvgjsMarker1045)"></path></g><g id="SvgjsG1047" transform="translate(565.366662979126,190.64107558593753)"><path id="SvgjsPath1048" d="M 0 4Q 0 0 4 0L 192 0Q 196 0 196 4L 196 76Q 196 80 192 80L 4 80Q 0 80 0 76Z" stroke="rgba(33,41,48,1)" stroke-width="1.5" fill-opacity="1" fill="#ffffff"></path><path id="SvgjsPath1049" d="M 0 47L 196 47" stroke="rgba(33,41,48,1)" stroke-width="1.5" fill="none"></path><path id="SvgjsPath1050" d="M 0 0L 196 0L 196 80L 0 80Z" stroke="none" fill="none"></path><g id="SvgjsG1051"><text id="SvgjsText1052" font-family="&quot;Microsoft YaHei&quot;, 微软雅黑, Arial" text-anchor="middle" font-size="13px" width="176px" fill="#323232" font-weight="700" align="middle" lineHeight="125%" anchor="middle" family="&quot;Microsoft YaHei&quot;, 微软雅黑, Arial" size="13px" weight="700" font-style="" opacity="1" y="4.375" transform="rotate(0)"><tspan id="SvgjsTspan1053" dy="16.25" x="98"><tspan id="SvgjsTspan1054" style="">AuthorizeHttp</tspan></tspan><tspan id="SvgjsTspan1055" dy="16.25" x="98"><tspan id="SvgjsTspan1056" style="">RequestsConfigurer</tspan></tspan></text></g><g id="SvgjsG1057"><text id="SvgjsText1058" font-family="&quot;Microsoft YaHei&quot;, 微软雅黑, Arial" text-anchor="start" font-size="13px" width="176px" fill="#323232" font-weight="400" align="middle" lineHeight="125%" anchor="start" family="&quot;Microsoft YaHei&quot;, 微软雅黑, Arial" size="13px" weight="400" font-style="" opacity="1" y="52.875" transform="rotate(0)"><tspan id="SvgjsTspan1059" dy="16.25" x="10"><tspan id="SvgjsTspan1060" style="">registry</tspan></tspan></text></g></g><g id="SvgjsG1061"><path id="SvgjsPath1062" d="M564.8767566200385 258.2411007629395L526.6267566200385 258.2411007629395L526.6267566200385 364.2411007629395L123 364.2411007629395L123 422.04109694824217" stroke="#323232" stroke-width="1.5" fill="none" marker-end="url(#SvgjsMarker1063)"></path></g><g id="SvgjsG1065" transform="translate(258.99998474121094,470.7410969482422)"><path id="SvgjsPath1066" d="M 0 4Q 0 0 4 0L 183.73335647583008 0Q 187.73335647583008 0 187.73335647583008 4L 187.73335647583008 89Q 187.73335647583008 93 183.73335647583008 93L 4 93Q 0 93 0 89Z" stroke="rgba(33,41,48,1)" stroke-width="1.5" fill-opacity="1" fill="#ffffff"></path><path id="SvgjsPath1067" d="M 0 63L 187.73335647583008 63" stroke="rgba(33,41,48,1)" stroke-width="1.5" fill="none"></path><path id="SvgjsPath1068" d="M 0 0L 187.73335647583008 0L 187.73335647583008 93L 0 93Z" stroke="none" fill="none"></path><g id="SvgjsG1069"><text id="SvgjsText1070" font-family="&quot;Microsoft YaHei&quot;, 微软雅黑, Arial" text-anchor="middle" font-size="13px" width="168px" fill="#323232" font-weight="700" align="middle" lineHeight="125%" anchor="middle" family="&quot;Microsoft YaHei&quot;, 微软雅黑, Arial" size="13px" weight="700" font-style="" opacity="1" y="4.375" transform="rotate(0)"><tspan id="SvgjsTspan1071" dy="16.25" x="94"><tspan id="SvgjsTspan1072" style="">RequestMatcher</tspan></tspan><tspan id="SvgjsTspan1073" dy="16.25" x="94"><tspan id="SvgjsTspan1074" style="">DelegatingAuthorization</tspan></tspan><tspan id="SvgjsTspan1075" dy="16.25" x="94"><tspan id="SvgjsTspan1076" style="">Manager$Builder</tspan></tspan></text></g><g id="SvgjsG1077"><text id="SvgjsText1078" font-family="&quot;Microsoft YaHei&quot;, 微软雅黑, Arial" text-anchor="start" font-size="13px" width="168px" fill="#323232" font-weight="400" align="middle" lineHeight="125%" anchor="start" family="&quot;Microsoft YaHei&quot;, 微软雅黑, Arial" size="13px" weight="400" font-style="" opacity="1" y="67.375" transform="rotate(0)"><tspan id="SvgjsTspan1079" dy="16.25" x="10"><tspan id="SvgjsTspan1080" style="">mappings (List)</tspan></tspan></text></g></g><g id="SvgjsG1081"><path id="SvgjsPath1082" d="M218.85719959328503 517.0411L238.55359216724798 517.0411L238.55359216724798 517.2410969482422L256.29998474121095 517.2410969482422" stroke="#323232" stroke-width="1.5" fill="none" marker-end="url(#SvgjsMarker1083)"></path></g><g id="SvgjsG1085" transform="translate(503.49997901916504,413.40775344238284)"><path id="SvgjsPath1086" d="M 0 0L 601.9000301361085 0L 617.9000301361085 16L 617.9000301361085 57.333343505859375L 0 57.333343505859375L 0 0Z" stroke="none" fill-opacity="1" fill="#fff7bc"></path><path id="SvgjsPath1087" d="M 601.9000301361085 0L 601.9000301361085 16L 617.9000301361085 16Z" stroke="none" fill-opacity="1" fill="#e4d089"></path><path id="SvgjsPath1088" d="M 0 0L 601.9000301361085 0L 617.9000301361085 16L 617.9000301361085 57.333343505859375L 0 57.333343505859375L 0 0Z" stroke="none" fill="none"></path><g id="SvgjsG1089"><text id="SvgjsText1090" font-family="&quot;Lucida Console&quot;" text-anchor="start" font-size="14px" width="598px" fill="#323232" font-weight="400" align="middle" lineHeight="125%" anchor="start" family="&quot;Lucida Console&quot;" size="14px" weight="400" font-style="" opacity="1" y="16.916671752929688" transform="rotate(0)"><tspan id="SvgjsTspan1091" dy="17.5" x="10"><tspan id="SvgjsTspan1092" style="">Deferred [Mvc [pattern='/temp/test/'], Ant [pattern='/temp/test/']]</tspan></tspan></text></g></g><g id="SvgjsG1093" transform="translate(279.70000916719437,246.64107558593753)"><path id="SvgjsPath1094" d="M 0 4Q 0 0 4 0L 192 0Q 196 0 196 4L 196 56Q 196 60 192 60L 4 60Q 0 60 0 56Z" stroke="rgba(33,41,48,1)" stroke-width="1.5" fill-opacity="1" fill="#ffffff"></path><path id="SvgjsPath1095" d="M 0 30L 196 30" stroke="rgba(33,41,48,1)" stroke-width="1.5" fill="none"></path><path id="SvgjsPath1096" d="M 0 0L 196 0L 196 60L 0 60Z" stroke="none" fill="none"></path><g id="SvgjsG1097"><text id="SvgjsText1098" font-family="&quot;Microsoft YaHei&quot;, 微软雅黑, Arial" text-anchor="middle" font-size="13px" width="176px" fill="#323232" font-weight="700" align="middle" lineHeight="125%" anchor="middle" family="&quot;Microsoft YaHei&quot;, 微软雅黑, Arial" size="13px" weight="700" font-style="" opacity="1" y="4.375" transform="rotate(0)"><tspan id="SvgjsTspan1099" dy="16.25" x="98"><tspan id="SvgjsTspan1100" style="">DefaultSecurityFilterChain</tspan></tspan></text></g><g id="SvgjsG1101"><text id="SvgjsText1102" font-family="&quot;Microsoft YaHei&quot;, 微软雅黑, Arial" text-anchor="start" font-size="13px" width="176px" fill="#323232" font-weight="400" align="middle" lineHeight="125%" anchor="start" family="&quot;Microsoft YaHei&quot;, 微软雅黑, Arial" size="13px" weight="400" font-style="" opacity="1" y="34.375" transform="rotate(0)"><tspan id="SvgjsTspan1103" dy="16.25" x="10"><tspan id="SvgjsTspan1104" style="">filters</tspan></tspan></text></g></g><g id="SvgjsG1105" transform="translate(270.20000916719437,25)"><path id="SvgjsPath1106" d="M0 0 L178 0 L178 40.01027500000001 L0 40.01027500000001 Z" stroke="rgba(102, 102, 102,1)" stroke-width="1" fill-opacity="1" fill="#ffffff"></path><path id="SvgjsPath1107" d="M0 40.01027500000001 L178 40.01027500000001 L178 80.02055000000001 L0 80.02055000000001 Z" stroke="rgba(102, 102, 102,1)" stroke-width="1" fill-opacity="1" fill="#ffffff"></path><path id="SvgjsPath1108" d="M0 80.02055000000001 L178 80.02055000000001 L178 120.03082500000002 L0 120.03082500000002 Z" stroke="rgba(102, 102, 102,1)" stroke-width="1" fill-opacity="1" fill="#ffffff"></path><path id="SvgjsPath1109" d="M0 120.03082500000002 L178 120.03082500000002 L178 160.04110000000003 L0 160.04110000000003 Z" stroke="rgba(102, 102, 102,1)" stroke-width="1" fill-opacity="1" fill="#ffffff"></path><g id="SvgjsG1110"><text id="SvgjsText1111" font-family="&quot;Microsoft YaHei&quot;, 微软雅黑, Arial" text-anchor="middle" font-size="14px" width="178px" fill="#323232" font-weight="700" align="middle" lineHeight="125%" anchor="middle" family="&quot;Microsoft YaHei&quot;, 微软雅黑, Arial" size="14px" weight="700" font-style="" opacity="1" y="8.255137500000004" transform="rotate(0)"><tspan id="SvgjsTspan1112" dy="17.5" x="89"><tspan id="SvgjsTspan1113" style="">HttpSecurity</tspan></tspan></text></g><g id="SvgjsG1114"><text id="SvgjsText1115" font-family="&quot;Microsoft YaHei&quot;, 微软雅黑, Arial" text-anchor="middle" font-size="14px" width="178px" fill="#323232" font-weight="400" align="middle" lineHeight="125%" anchor="middle" family="&quot;Microsoft YaHei&quot;, 微软雅黑, Arial" size="14px" weight="400" font-style="" opacity="1" y="48.26541250000001" transform="rotate(0)"><tspan id="SvgjsTspan1116" dy="17.5" x="89"><tspan id="SvgjsTspan1117" style="">filters</tspan></tspan></text></g><g id="SvgjsG1118"><text id="SvgjsText1119" font-family="&quot;Microsoft YaHei&quot;, 微软雅黑, Arial" text-anchor="middle" font-size="14px" width="178px" fill="#323232" font-weight="400" align="middle" lineHeight="125%" anchor="middle" family="&quot;Microsoft YaHei&quot;, 微软雅黑, Arial" size="14px" weight="400" font-style="" opacity="1" y="88.27568750000002" transform="rotate(0)"><tspan id="SvgjsTspan1120" dy="17.5" x="89"><tspan id="SvgjsTspan1121" style="">authorizeHttpRequests()</tspan></tspan></text></g><g id="SvgjsG1122"><text id="SvgjsText1123" font-family="&quot;Microsoft YaHei&quot;, 微软雅黑, Arial" text-anchor="middle" font-size="14px" width="178px" fill="#323232" font-weight="400" align="middle" lineHeight="125%" anchor="middle" family="&quot;Microsoft YaHei&quot;, 微软雅黑, Arial" size="14px" weight="400" font-style="" opacity="1" y="128.28596250000004" transform="rotate(0)"><tspan id="SvgjsTspan1124" dy="17.5" x="89"><tspan id="SvgjsTspan1125" style="">build()</tspan></tspan></text></g></g><g id="SvgjsG1126"><path id="SvgjsPath1127" d="M448.70000916719437 128.6411000238419L506.78333607316017 128.6411000238419L506.78333607316017 230.64107558593753L562.6666629791259 230.64107558593753" stroke="#323232" stroke-width="1.5" fill="none" marker-end="url(#SvgjsMarker1128)"></path><rect id="SvgjsRect1130" width="25.4" height="18" x="494.0833360731602" y="154.1290249445076" fill="#ffffff"></rect><text id="SvgjsText1131" font-family="&quot;Microsoft YaHei&quot;, 微软雅黑, Arial" text-anchor="middle" font-size="13px" width="25.4px" fill="#323232" font-weight="400" align="top" lineHeight="16px" anchor="middle" family="&quot;Microsoft YaHei&quot;, 微软雅黑, Arial" size="13px" weight="400" font-style="" opacity="1" y="151.5040249445076" transform="rotate(0)"><tspan id="SvgjsTspan1132" dy="16.25" x="506.5833360731602"><tspan id="SvgjsTspan1133" style="">new</tspan></tspan></text></g><g id="SvgjsG1134" transform="translate(505.40000915527344,491.8256877929688)"><path id="SvgjsPath1135" d="M0 0 L202 0 L202 40.00626564000001 L0 40.00626564000001 Z" stroke="rgba(102, 102, 102,1)" stroke-width="1" fill-opacity="1" fill="#ffffff"></path><path id="SvgjsPath1136" d="M0 40.00626564000001 L202 40.00626564000001 L202 80.01253128000002 L0 80.01253128000002 Z" stroke="rgba(102, 102, 102,1)" stroke-width="1" fill-opacity="1" fill="#ffffff"></path><path id="SvgjsPath1137" d="M0 80.01253128000002 L202 80.01253128000002 L202 120.03080000000003 L0 120.03080000000003 Z" stroke="rgba(102, 102, 102,1)" stroke-width="1" fill-opacity="1" fill="#ffffff"></path><g id="SvgjsG1138"><text id="SvgjsText1139" font-family="&quot;Microsoft YaHei&quot;, 微软雅黑, Arial" text-anchor="middle" font-size="14px" width="202px" fill="#323232" font-weight="700" align="middle" lineHeight="125%" anchor="middle" family="&quot;Microsoft YaHei&quot;, 微软雅黑, Arial" size="14px" weight="700" font-style="" opacity="1" y="8.253132820000005" transform="rotate(0)"><tspan id="SvgjsTspan1140" dy="17.5" x="101"><tspan id="SvgjsTspan1141" style="">RequestMatcherEntry</tspan></tspan></text></g><g id="SvgjsG1142"><text id="SvgjsText1143" font-family="&quot;Microsoft YaHei&quot;, 微软雅黑, Arial" text-anchor="middle" font-size="14px" width="202px" fill="#323232" font-weight="400" align="middle" lineHeight="125%" anchor="middle" family="&quot;Microsoft YaHei&quot;, 微软雅黑, Arial" size="14px" weight="400" font-style="" opacity="1" y="48.259398460000014" transform="rotate(0)"><tspan id="SvgjsTspan1144" dy="17.5" x="101"><tspan id="SvgjsTspan1145" style="">requestMatcher</tspan></tspan></text></g><g id="SvgjsG1146"><text id="SvgjsText1147" font-family="&quot;Microsoft YaHei&quot;, 微软雅黑, Arial" text-anchor="middle" font-size="14px" width="202px" fill="#323232" font-weight="400" align="middle" lineHeight="125%" anchor="middle" family="&quot;Microsoft YaHei&quot;, 微软雅黑, Arial" size="14px" weight="400" font-style="" opacity="1" y="79.77166564000002" transform="rotate(0)"><tspan id="SvgjsTspan1148" dy="17.5" x="101"><tspan id="SvgjsTspan1149" style="">manager</tspan></tspan><tspan id="SvgjsTspan1150" dy="17.5" x="101"><tspan id="SvgjsTspan1151" style="">(AuthorizationManager)</tspan></tspan></text></g></g><g id="SvgjsG1152"><path id="SvgjsPath1153" d="M447.15000915527344 551.3744435058594L475.90000915527344 551.3744435058594L475.90000915527344 551.8410877929688L502.9500091552734 551.8410877929688" stroke="#323232" stroke-width="1.5" fill="none" marker-end="url(#SvgjsMarker1154)"></path></g><g id="SvgjsG1156" transform="translate(764.4000091552734,513.3410877929688)"><path id="SvgjsPath1157" d="M 0 4Q 0 0 4 0L 238.33333206176758 0Q 242.33333206176758 0 242.33333206176758 4L 242.33333206176758 73Q 242.33333206176758 77 238.33333206176758 77L 4 77Q 0 77 0 73Z" stroke="rgba(33,41,48,1)" stroke-width="1.5" fill-opacity="1" fill="#ffffff"></path><path id="SvgjsPath1158" d="M 0 47L 242.33333206176758 47" stroke="rgba(33,41,48,1)" stroke-width="1.5" fill="none"></path><path id="SvgjsPath1159" d="M 0 0L 242.33333206176758 0L 242.33333206176758 77L 0 77Z" stroke="none" fill="none"></path><g id="SvgjsG1160"><text id="SvgjsText1161" font-family="&quot;Microsoft YaHei&quot;, 微软雅黑, Arial" text-anchor="middle" font-size="13px" width="223px" fill="#323232" font-weight="700" align="middle" lineHeight="125%" anchor="middle" family="&quot;Microsoft YaHei&quot;, 微软雅黑, Arial" size="13px" weight="700" font-style="" opacity="1" y="4.375" transform="rotate(0)"><tspan id="SvgjsTspan1162" dy="16.25" x="121.5"><tspan id="SvgjsTspan1163" style="">AbstractRequestMatcherRegistry</tspan></tspan><tspan id="SvgjsTspan1164" dy="16.25" x="121.5"><tspan id="SvgjsTspan1165" style="">$DeferredRequestMatcher</tspan></tspan></text></g><g id="SvgjsG1166"><text id="SvgjsText1167" font-family="&quot;Microsoft YaHei&quot;, 微软雅黑, Arial" text-anchor="start" font-size="13px" width="223px" fill="#323232" font-weight="400" align="middle" lineHeight="125%" anchor="start" family="&quot;Microsoft YaHei&quot;, 微软雅黑, Arial" size="13px" weight="400" font-style="" opacity="1" y="51.375" transform="rotate(0)"><tspan id="SvgjsTspan1168" dy="16.25" x="10"><tspan id="SvgjsTspan1169" style="">description</tspan></tspan></text></g></g><g id="SvgjsG1170"><path id="SvgjsPath1171" d="M1007.1500091552734 571.3744435058594L1054.4000091552734 571.3744435058594L1054.4000091552734 470.3744435058594" stroke-dasharray="1.5,2.25" stroke="#323232" stroke-width="1.5" fill="none"></path></g><g id="SvgjsG1172" transform="translate(277.40000915527344,654.4077534423828)"><path id="SvgjsPath1173" d="M 0 0L 641.9000301361085 0L 657.9000301361085 16L 657.9000301361085 57.333343505859375L 0 57.333343505859375L 0 0Z" stroke="none" fill-opacity="1" fill="#fff7bc"></path><path id="SvgjsPath1174" d="M 641.9000301361085 0L 641.9000301361085 16L 657.9000301361085 16Z" stroke="none" fill-opacity="1" fill="#e4d089"></path><path id="SvgjsPath1175" d="M 0 0L 641.9000301361085 0L 657.9000301361085 16L 657.9000301361085 57.333343505859375L 0 57.333343505859375L 0 0Z" stroke="none" fill="none"></path><g id="SvgjsG1176"><text id="SvgjsText1177" font-family="&quot;Lucida Console&quot;" text-anchor="start" font-size="14px" width="638px" fill="#323232" font-weight="400" align="middle" lineHeight="125%" anchor="start" family="&quot;Lucida Console&quot;" size="14px" weight="400" font-style="" opacity="1" y="16.916671752929688" transform="rotate(0)"><tspan id="SvgjsTspan1178" dy="17.5" x="10"><tspan id="SvgjsTspan1179" style="">permitAllAuthorizationManager = (a, o) -&gt; new AuthorizationDecision(true)</tspan></tspan></text></g></g><g id="SvgjsG1180"><path id="SvgjsPath1181" d="M707.9000091552734 551.8410877929688L735.9000091552734 551.8410877929688L735.9000091552734 551.8410877929688L761.7000091552734 551.8410877929688" stroke="#323232" stroke-width="1.5" fill="none" marker-end="url(#SvgjsMarker1182)"></path></g><g id="SvgjsG1184"><path id="SvgjsPath1185" d="M606.4000091552734 612.3564877929688L606.4000091552734 633.1321206176758L606.3500242233276 633.1321206176758L606.3500242233276 654.4077534423828" stroke-dasharray="1.5,2.25" stroke="#323232" stroke-width="1.5" fill="none"></path></g><g id="SvgjsG1186"><path id="SvgjsPath1187" d="M447.90000915527344 165.6411000238419L477.40000915527344 165.6411000238419L477.40000915527344 216.64107558593753L377.70000916719437 216.64107558593753L377.70000916719437 243.94107558593754" stroke="#323232" stroke-width="1.5" fill="none" marker-end="url(#SvgjsMarker1188)"></path><rect id="SvgjsRect1190" width="25.4" height="18" x="439.5078007702149" y="207.64107558593753" fill="#ffffff"></rect><text id="SvgjsText1191" font-family="&quot;Microsoft YaHei&quot;, 微软雅黑, Arial" text-anchor="middle" font-size="13px" width="25.4px" fill="#323232" font-weight="400" align="top" lineHeight="16px" anchor="middle" family="&quot;Microsoft YaHei&quot;, 微软雅黑, Arial" size="13px" weight="400" font-style="" opacity="1" y="205.01607558593753" transform="rotate(0)"><tspan id="SvgjsTspan1192" dy="16.25" x="452.0078007702149"><tspan id="SvgjsTspan1193" style="">new</tspan></tspan></text></g><g id="SvgjsG1194"></g></svg>